<svg id="Layer_1" data-name="Layer 1" xmlns="http://www.w3.org/2000/svg" viewBox="0 0 541.3 492.85"><defs><style>.cls-1{fill:#48f9ca;}.cls-2{fill:#3f9efc;}.cls-3{fill:#f4b69a;}.cls-4{fill:#775bbc;}</style></defs><title>logo-no-text</title><path class="cls-1" d="M371.86,197.76,388,181.16c4.44-6,9-12,13.61-17.86a4.37,4.37,0,0,1,.67-.86l2.2-2.83a3.87,3.87,0,0,1,1.83-1.36c1.07-1.53,2-3.18,3.11-4.61,1.91-2.52,3.9-5,5.93-7.4,4.42-5.28,9.22-10.25,15.14-13.84a4.41,4.41,0,0,1,1.77-.64c.61-.77,1.18-1.58,1.75-2.38,1.41-2,2.71-4.07,4.12-6.07,3.19-4.56,7-9.29,12.74-10.5a4.53,4.53,0,0,1,2,0c2.1-2.17,4.45-4.07,6.57-6.23,4.82-4.94,7-11.69,12.73-15.82a4,4,0,0,1,2.06-.8c3-3.33,6.2-6.45,8.83-10.13,2.94-4.11,5.81-7.93,9.84-11a4,4,0,0,1,1.75-.81c4.83-5.47,9.1-11.41,13.68-17.1a4.43,4.43,0,0,1,.75-.93,4.33,4.33,0,0,1,1.13-1c3.83-3.25,8.07-6,11.85-9.34,3.11-2.73,8.62-6.47,10.71-10.43q-10.09.07-20.18.23c-8.4.14-17,2.13-25.39,1.12a4.79,4.79,0,0,1-1.37-.38c-5.14-.09-10.27-.47-15.41-.49-4,0-8.09.48-12-.87A4.32,4.32,0,0,1,456,26.9c-6.25.24-12.48-.18-18.78-.24l-.21,0-.14,0c-8.66.71-17.31,1.36-26,1.41a4.18,4.18,0,0,1-2.31-.64,4,4,0,0,1-3,1.16,4,4,0,0,1-3.39-1.69,130.1,130.1,0,0,1-10.72,10.23c-8.61,7.37-78.35,80.49-154.67,158.9-.51.53-1,1.09-1.58,1.74.57.61,1.06,1.15,1.57,1.68q83,84.9,166,169.82a5.8,5.8,0,0,0,4.56,1.92q65.12-.08,130.25,0h3Z" transform="translate(0.65 -23.57)"/><path class="cls-2" d="M371.86,197.76c-7.4-7.73-27.77-31.09-28.51-64.69-.42-19,5.6-33.06,10.91-45.48,14.58-34.09,50.71-63.37,51.57-64l134.4.4Z" transform="translate(0.65 -23.57)"/><path class="cls-3" d="M168.51,342.16l-16.06,16.64c-4.43,6-9,12-13.57,17.89a4.37,4.37,0,0,1-.67.86L136,380.4a3.87,3.87,0,0,1-1.82,1.37c-1.07,1.54-2,3.18-3.1,4.61-1.9,2.52-3.89,5-5.91,7.42-4.41,5.28-9.2,10.27-15.11,13.87a4.41,4.41,0,0,1-1.77.64c-.61.77-1.18,1.58-1.74,2.38-1.41,2-2.71,4.07-4.1,6.08-3.18,4.57-7,9.31-12.72,10.53a4.53,4.53,0,0,1-2,0c-2.09,2.17-4.44,4.08-6.55,6.25-4.81,4.95-7,11.71-12.69,15.85a4,4,0,0,1-2.06.81c-3,3.33-6.19,6.47-8.81,10.15-2.93,4.12-5.79,7.94-9.82,11a4,4,0,0,1-1.75.81c-4.82,5.48-9.08,11.43-13.65,17.13a4.43,4.43,0,0,1-.75.93,4.33,4.33,0,0,1-1.12,1c-3.83,3.26-8.05,6-11.83,9.37-3.1,2.73-8.61,6.49-10.69,10.46q10.09-.09,20.18-.28c8.4-.15,17-2.17,25.39-1.17A4.79,4.79,0,0,1,55,510c5.14.08,10.27.45,15.41.46,4,0,8.09-.5,12,.84a4.32,4.32,0,0,1,2.38,1.89c6.25-.25,12.48.16,18.78.2l.21,0,.14,0c8.66-.72,17.31-1.39,26-1.46a4.18,4.18,0,0,1,2.31.63,4,4,0,0,1,3-1.17,4,4,0,0,1,3.39,1.68,130.1,130.1,0,0,1,10.69-10.25c8.59-7.39,78.18-80.66,154.33-159.23.51-.53,1-1.09,1.58-1.74-.57-.61-1.06-1.15-1.58-1.68q-83.21-84.72-166.39-169.46a5.8,5.8,0,0,0-4.57-1.91q-65.12.22-130.25.32h-3Z" transform="translate(0.65 -23.57)"/><path class="cls-4" d="M168.51,342.16c7.42,7.72,27.84,31,28.65,64.63.46,19-5.53,33.07-10.82,45.5-14.51,34.13-50.58,63.48-51.44,64.13L.5,516.31Z" transform="translate(0.65 -23.57)"/></svg>